<svg xmlns="http://www.w3.org/2000/svg" version="1.1" xmlns:xlink="http://www.w3.org/1999/xlink" xmlns:svgjs="http://svgjs.dev/svgjs" width="2000" height="1247" viewBox="0 0 2000 1247"><g transform="matrix(1,0,0,1,-1.2121212121212466,0.504858299595071)"><svg viewBox="0 0 396 247" data-background-color="#ffffff" preserveAspectRatio="xMidYMid meet" height="1247" width="2000" xmlns="http://www.w3.org/2000/svg" xmlns:xlink="http://www.w3.org/1999/xlink"><g id="tight-bounds" transform="matrix(1,0,0,1,0.2400000000000091,-0.09999999999999432)"><svg viewBox="0 0 395.52 247.2" height="247.2" width="395.52"><g><svg viewBox="0 0 395.52 247.2" height="247.2" width="395.52"><g transform="matrix(1,0,0,1,0,12.865757358219682)"><svg viewBox="0 0 395.52 221.46848528356063" height="221.46848528356063" width="395.52"><g><svg viewBox="0 0 395.52 221.46848528356063" height="221.46848528356063" width="395.52"><g><svg viewBox="0 0 395.52 221.46848528356063" height="221.46848528356063" width="395.52"><g id="textblocktransform"><svg viewBox="0 0 395.52 221.46848528356063" height="221.46848528356063" width="395.52" id="textblock"><g><svg viewBox="0 0 395.52 221.46848528356063" height="221.46848528356063" width="395.52"><g transform="matrix(1,0,0,1,0,0)"><svg width="395.52" viewBox="72.30000000000001 -35.05 139.29999999999998 74.55" height="221.46848528356063" data-palette-color="#4a596d"><svg></svg><svg></svg><g class="wordmark-text-0" data-fill-palette-color="primary" id="text-0"><path d="M87.78 0v-1.5h18.4l-10.6-29.15-11.15 30.65h-1.6l12.75-35.05 12.75 35.05zM116.63 0v-1.5h16.3l-10.25-24.15-10.9 25.65h-1.6l12.5-29.5 12.5 29.5zM137.13-29h22.5v1.5h-10.5v27.5h-1.5v-27.5h-10.5zM165.38 0v-29h1.5v29zM177.38 0h-1.5v-14.5c0-5.267 0.907-9.083 2.72-11.45 1.82-2.367 4.797-3.55 8.93-3.55v0c4.833 0 8.117 1.583 9.85 4.75v0l-10.45 8.75h10.65v1.5h-14.8l12.65-10.55c-1.467-1.967-4.1-2.95-7.9-2.95v0c-1.667 0-3.067 0.173-4.2 0.52-1.133 0.353-2.173 1.003-3.12 1.95-0.953 0.953-1.663 2.337-2.13 4.15-0.467 1.82-0.7 4.113-0.7 6.88v0z" fill="#4a596d" fill-rule="nonzero" stroke="none" stroke-width="1" stroke-linecap="butt" stroke-linejoin="miter" stroke-miterlimit="10" stroke-dasharray="" stroke-dashoffset="0" font-family="none" font-weight="none" font-size="none" text-anchor="none" style="mix-blend-mode: normal" data-fill-palette-color="primary" opacity="1"></path><path d="M73.55 12.65v0c0-3.233 0.817-5.567 2.45-7 1.633-1.433 4.283-2.15 7.95-2.15v0c2.567 0 4.633 0.667 6.2 2 1.567 1.333 2.7 3.367 3.4 6.1v0l-4.65 3.5h-2.45l5.4-4.05c-0.7-2.233-1.707-3.8-3.02-4.7-1.32-0.9-2.947-1.35-4.88-1.35v0c-1.333 0-2.457 0.083-3.37 0.25-0.92 0.167-1.837 0.493-2.75 0.98-0.92 0.48-1.613 1.253-2.08 2.32-0.467 1.067-0.7 2.433-0.7 4.1v0c0 1.467 0.677 2.767 2.03 3.9 1.347 1.133 2.987 2.1 4.92 2.9 1.933 0.8 3.877 1.617 5.83 2.45 1.947 0.833 3.597 1.9 4.95 3.2 1.347 1.3 2.02 2.8 2.02 4.5v0c0 3.333-0.823 5.817-2.47 7.45-1.653 1.633-4.48 2.45-8.48 2.45v0c-3.267 0-5.833-0.66-7.7-1.98-1.867-1.313-3.15-3.353-3.85-6.12v0l1.4-0.6c0.667 2.7 1.81 4.573 3.43 5.62 1.613 1.053 3.853 1.58 6.72 1.58v0c3.2 0 5.577-0.617 7.13-1.85 1.547-1.233 2.32-3.417 2.32-6.55v0c0-1.467-0.673-2.767-2.02-3.9-1.353-1.133-3.003-2.1-4.95-2.9-1.953-0.8-3.897-1.617-5.83-2.45-1.933-0.833-3.573-1.9-4.92-3.2-1.353-1.3-2.03-2.8-2.03-4.5zM120.45 10v29h-1.5v-14.5h-15v14.5h-1.5v-29h1.5v13h15v-13zM132.6 39v-1.5h16.3l-10.25-24.15-10.9 25.65h-1.6l12.5-29.5 12.5 29.5zM156.85 39v-29h1.5v29zM169.35 39h-1.5v-29h1.5zM188.5 39h-2.15l-15.4-15.3 13.8-13.7h2.15l-13.8 13.7zM211.6 10v29h-1.5v-14.5h-15v14.5h-1.5v-29h1.5v13h15v-13z" fill="#4a596d" fill-rule="nonzero" stroke="none" stroke-width="1" stroke-linecap="butt" stroke-linejoin="miter" stroke-miterlimit="10" stroke-dasharray="" stroke-dashoffset="0" font-family="none" font-weight="none" font-size="none" text-anchor="none" style="mix-blend-mode: normal" data-fill-palette-color="primary" opacity="1"></path></g></svg></g></svg></g></svg></g></svg></g></svg></g></svg></g></svg></g><defs></defs></svg><rect width="395.52" height="247.2" fill="none" stroke="none" visibility="hidden"></rect></g></svg></g></svg>