<svg xmlns="http://www.w3.org/2000/svg" version="1.1" xmlns:xlink="http://www.w3.org/1999/xlink" xmlns:svgjs="http://svgjs.dev/svgjs" width="2000" height="2024" viewBox="0 0 2000 2024"><g transform="matrix(1,0,0,1,1.767868852458946,0.8194331983804659)"><svg viewBox="0 0 244 247" data-background-color="#ffffff" preserveAspectRatio="xMidYMid meet" height="2024" width="2000" xmlns="http://www.w3.org/2000/svg" xmlns:xlink="http://www.w3.org/1999/xlink"><g id="tight-bounds" transform="matrix(1,0,0,1,-0.21567999999999188,-0.09999999999999432)"><svg viewBox="0 0 244.43135999999998 247.2" height="247.2" width="244.43135999999998"><g><svg></svg></g><g><svg viewBox="0 0 244.43135999999998 247.2" height="247.2" width="244.43135999999998"><g transform="matrix(1,0,0,1,0,57.2385447963801)"><svg viewBox="0 0 244.43135999999998 132.7229104072398" height="132.7229104072398" width="244.43135999999998"><g><svg viewBox="0 0 244.43135999999998 132.7229104072398" height="132.7229104072398" width="244.43135999999998"><g><svg viewBox="0 0 244.43135999999998 132.7229104072398" height="132.7229104072398" width="244.43135999999998"><g id="textblocktransform"><svg viewBox="0 0 244.43135999999998 132.7229104072398" height="132.7229104072398" width="244.43135999999998" id="textblock"><g><svg viewBox="0 0 244.43135999999998 132.7229104072398" height="132.7229104072398" width="244.43135999999998"><g transform="matrix(1,0,0,1,0,0)"><svg width="244.43135999999998" viewBox="0.9 -35.5 66.3 36" height="132.7229104072398" data-palette-color="#4a596d"><path d="M5.85 0L5.85-1.5 24.25-1.5 13.65-30.65 2.5 0 0.9 0 13.65-35.05 26.4 0 5.85 0ZM45.95-26.35L45.95-26.35Q45.95-31.2 48.4-33.35 50.84-35.5 56.34-35.5L56.34-35.5Q60.2-35.5 62.55-33.5 64.9-31.5 65.95-27.4L65.95-27.4 61.3-23.9 58.84-23.9 64.25-27.95Q63.2-31.3 61.22-32.65 59.25-34 56.34-34L56.34-34Q54.34-34 52.97-33.75 51.59-33.5 50.22-32.77 48.84-32.05 48.15-30.45 47.45-28.85 47.45-26.35L47.45-26.35Q47.45-24.15 49.47-22.45 51.5-20.75 54.4-19.55 57.3-18.35 60.22-17.1 63.15-15.85 65.17-13.9 67.2-11.95 67.2-9.4L67.2-9.4Q67.2-4.4 64.72-1.95 62.25 0.5 56.25 0.5L56.25 0.5Q51.34 0.5 48.55-1.48 45.75-3.45 44.7-7.6L44.7-7.6 46.09-8.2Q47.09-4.15 49.52-2.58 51.95-1 56.25-1L56.25-1Q61.05-1 63.37-2.85 65.7-4.7 65.7-9.4L65.7-9.4Q65.7-11.6 63.67-13.3 61.65-15 58.72-16.2 55.8-17.4 52.9-18.65 50-19.9 47.97-21.85 45.95-23.8 45.95-26.35Z" opacity="1" transform="matrix(1,0,0,1,0,0)" fill="#000000" class="wordmark-text-0" data-fill-palette-color="primary" id="text-0"></path></svg></g></svg></g></svg></g></svg></g><g></g></svg></g></svg></g><path d="M0 51.239L0 1 244.431 1 244.431 51.239 232.462 51.239 232.462 12.969 11.969 12.969 11.969 51.239 0 51.239M0 195.961L0 246.2 244.431 246.2 244.431 195.961 232.462 195.961 232.462 234.231 11.969 234.231 11.969 195.961 0 195.961" fill="#000000" stroke="transparent" data-fill-palette-color="primary"></path></svg></g><defs></defs></svg><rect width="244.43135999999998" height="247.2" fill="none" stroke="none" visibility="hidden"></rect></g></svg></g></svg>