<?xml version="1.0" encoding="UTF-8"?>
<svg id="Layer_2" data-name="Layer 2" xmlns="http://www.w3.org/2000/svg" viewBox="0 0 402.72 465.92">
  <defs>
    <style>
      .cls-1 {
        letter-spacing: .03em;
      }

      .cls-2 {
        stroke-width: 0px;
      }

      .cls-2, .cls-3 {
        fill: #000;
      }

      .cls-4 {
        letter-spacing: -.07em;
      }

      .cls-5 {
        letter-spacing: 0em;
      }

      .cls-3 {
        font-family: Jost-Regular, Jost;
        font-size: 64.56px;
      }
    </style>
  </defs>
  <g id="Layer_1-2" data-name="Layer 1">
    <g>
      <g>
        <polygon class="cls-2" points="293.55 266.89 82.55 266.89 200.41 63.84 218.63 32.46 200.04 0 30.16 297.74 311.18 297.74 293.55 266.89"/>
        <polygon class="cls-2" points="385.03 319.77 342.34 245.35 324.05 214.51 174.42 214.51 231.65 117.05 258.79 163.27 229.99 163.27 212.36 194.11 312.25 194.11 249.58 86.52 231.22 53.88 213.12 85.49 122.04 245.35 307.28 245.35 349.7 319.77 17.6 319.77 0 350.61 402.72 350.61 385.03 319.77"/>
      </g>
      <text class="cls-3" transform="translate(0 443.32)"><tspan class="cls-1" x="0" y="0">A</tspan><tspan class="cls-4" x="44.55" y="0">A</tspan><tspan class="cls-5" x="82.64" y="0">TIF SHAIKH</tspan></text>
    </g>
  </g>
</svg>